<svg width="277" height="59" viewBox="0 0 277 59" fill="none" xmlns="http://www.w3.org/2000/svg">
<g clip-path="url(#clip0)">
<path fill-rule="evenodd" clip-rule="evenodd" d="M29.5002 59V29.5H0.000176544V29.3968C5.88824e-05 29.4312 0 29.4656 0 29.5C0 45.7925 13.2076 59 29.5 59H29.5002Z" fill="white"/>
<path fill-rule="evenodd" clip-rule="evenodd" d="M29.4998 59V29.5H58.9998V29.3968C59 29.4312 59 29.4656 59 29.5C59 45.7925 45.7925 59 29.5 59H29.4998Z" fill="#D5D5D5"/>
<path d="M59 0H29.5V29.5H59V0Z" fill="#C5C5C5"/>
<path d="M13.7667 15.7333L29.5 0V29.5H0L13.7667 15.7333Z" fill="#A0A0A0"/>
<path d="M5.9 11.8C9.15848 11.8 11.8 9.15848 11.8 5.9C11.8 2.64152 9.15848 0 5.9 0C2.64152 0 0 2.64152 0 5.9C0 9.15848 2.64152 11.8 5.9 11.8Z" fill="#2196F3"/>
</g>
<path d="M80.032 45.224H85.888V47H77.848V30.272H80.032V45.224ZM93.9434 47.216C92.7114 47.216 91.5914 46.936 90.5834 46.376C89.5914 45.816 88.8074 45.024 88.2314 44C87.6714 42.96 87.3914 41.76 87.3914 40.4C87.3914 39.056 87.6794 37.872 88.2554 36.848C88.8474 35.808 89.6474 35.016 90.6554 34.472C91.6634 33.912 92.7914 33.632 94.0394 33.632C95.2874 33.632 96.4154 33.912 97.4234 34.472C98.4314 35.016 99.2234 35.8 99.7994 36.824C100.391 37.848 100.687 39.04 100.687 40.4C100.687 41.76 100.383 42.96 99.7754 44C99.1834 45.024 98.3754 45.816 97.3514 46.376C96.3274 46.936 95.1914 47.216 93.9434 47.216ZM93.9434 45.296C94.7274 45.296 95.4634 45.112 96.1514 44.744C96.8394 44.376 97.3914 43.824 97.8074 43.088C98.2394 42.352 98.4554 41.456 98.4554 40.4C98.4554 39.344 98.2474 38.448 97.8314 37.712C97.4154 36.976 96.8714 36.432 96.1994 36.08C95.5274 35.712 94.7994 35.528 94.0154 35.528C93.2154 35.528 92.4794 35.712 91.8074 36.08C91.1514 36.432 90.6234 36.976 90.2234 37.712C89.8234 38.448 89.6234 39.344 89.6234 40.4C89.6234 41.472 89.8154 42.376 90.1994 43.112C90.5994 43.848 91.1274 44.4 91.7834 44.768C92.4394 45.12 93.1594 45.296 93.9434 45.296ZM108.983 33.632C110.119 33.632 111.111 33.88 111.959 34.376C112.823 34.872 113.463 35.496 113.879 36.248V33.848H116.087V47.288C116.087 48.488 115.831 49.552 115.319 50.48C114.807 51.424 114.071 52.16 113.111 52.688C112.167 53.216 111.063 53.48 109.799 53.48C108.071 53.48 106.631 53.072 105.479 52.256C104.327 51.44 103.647 50.328 103.439 48.92H105.599C105.839 49.72 106.335 50.36 107.087 50.84C107.839 51.336 108.743 51.584 109.799 51.584C110.999 51.584 111.975 51.208 112.727 50.456C113.495 49.704 113.879 48.648 113.879 47.288V44.528C113.447 45.296 112.807 45.936 111.959 46.448C111.111 46.96 110.119 47.216 108.983 47.216C107.815 47.216 106.751 46.928 105.791 46.352C104.847 45.776 104.103 44.968 103.559 43.928C103.015 42.888 102.743 41.704 102.743 40.376C102.743 39.032 103.015 37.856 103.559 36.848C104.103 35.824 104.847 35.032 105.791 34.472C106.751 33.912 107.815 33.632 108.983 33.632ZM113.879 40.4C113.879 39.408 113.679 38.544 113.279 37.808C112.879 37.072 112.335 36.512 111.647 36.128C110.975 35.728 110.231 35.528 109.415 35.528C108.599 35.528 107.855 35.72 107.183 36.104C106.511 36.488 105.975 37.048 105.575 37.784C105.175 38.52 104.975 39.384 104.975 40.376C104.975 41.384 105.175 42.264 105.575 43.016C105.975 43.752 106.511 44.32 107.183 44.72C107.855 45.104 108.599 45.296 109.415 45.296C110.231 45.296 110.975 45.104 111.647 44.72C112.335 44.32 112.879 43.752 113.279 43.016C113.679 42.264 113.879 41.392 113.879 40.4ZM120.906 31.712C120.49 31.712 120.138 31.568 119.85 31.28C119.562 30.992 119.418 30.64 119.418 30.224C119.418 29.808 119.562 29.456 119.85 29.168C120.138 28.88 120.49 28.736 120.906 28.736C121.306 28.736 121.642 28.88 121.914 29.168C122.202 29.456 122.346 29.808 122.346 30.224C122.346 30.64 122.202 30.992 121.914 31.28C121.642 31.568 121.306 31.712 120.906 31.712ZM121.962 33.848V47H119.778V33.848H121.962ZM132.092 33.608C133.692 33.608 134.988 34.096 135.98 35.072C136.972 36.032 137.468 37.424 137.468 39.248V47H135.308V39.56C135.308 38.248 134.98 37.248 134.324 36.56C133.668 35.856 132.772 35.504 131.636 35.504C130.484 35.504 129.564 35.864 128.876 36.584C128.204 37.304 127.868 38.352 127.868 39.728V47H125.684V33.848H127.868V35.72C128.3 35.048 128.884 34.528 129.62 34.16C130.372 33.792 131.196 33.608 132.092 33.608ZM150.098 35.648V43.4C150.098 44.04 150.234 44.496 150.506 44.768C150.778 45.024 151.25 45.152 151.922 45.152H153.53V47H151.562C150.346 47 149.434 46.72 148.826 46.16C148.218 45.6 147.914 44.68 147.914 43.4V35.648H146.21V33.848H147.914V30.536H150.098V33.848H153.53V35.648H150.098ZM161.912 47.216C160.68 47.216 159.56 46.936 158.552 46.376C157.56 45.816 156.776 45.024 156.2 44C155.64 42.96 155.36 41.76 155.36 40.4C155.36 39.056 155.648 37.872 156.224 36.848C156.816 35.808 157.616 35.016 158.624 34.472C159.632 33.912 160.76 33.632 162.008 33.632C163.256 33.632 164.384 33.912 165.392 34.472C166.4 35.016 167.192 35.8 167.768 36.824C168.36 37.848 168.656 39.04 168.656 40.4C168.656 41.76 168.352 42.96 167.744 44C167.152 45.024 166.344 45.816 165.32 46.376C164.296 46.936 163.16 47.216 161.912 47.216ZM161.912 45.296C162.696 45.296 163.432 45.112 164.12 44.744C164.808 44.376 165.36 43.824 165.776 43.088C166.208 42.352 166.424 41.456 166.424 40.4C166.424 39.344 166.216 38.448 165.8 37.712C165.384 36.976 164.84 36.432 164.168 36.08C163.496 35.712 162.768 35.528 161.984 35.528C161.184 35.528 160.448 35.712 159.776 36.08C159.12 36.432 158.592 36.976 158.192 37.712C157.792 38.448 157.592 39.344 157.592 40.4C157.592 41.472 157.784 42.376 158.168 43.112C158.568 43.848 159.096 44.4 159.752 44.768C160.408 45.12 161.128 45.296 161.912 45.296ZM177.11 40.376C177.11 39.032 177.382 37.856 177.926 36.848C178.47 35.824 179.214 35.032 180.158 34.472C181.118 33.912 182.182 33.632 183.35 33.632C184.502 33.632 185.502 33.88 186.35 34.376C187.198 34.872 187.83 35.496 188.246 36.248V33.848H190.454V47H188.246V44.552C187.814 45.32 187.166 45.96 186.302 46.472C185.454 46.968 184.462 47.216 183.326 47.216C182.158 47.216 181.102 46.928 180.158 46.352C179.214 45.776 178.47 44.968 177.926 43.928C177.382 42.888 177.11 41.704 177.11 40.376ZM188.246 40.4C188.246 39.408 188.046 38.544 187.646 37.808C187.246 37.072 186.702 36.512 186.014 36.128C185.342 35.728 184.598 35.528 183.782 35.528C182.966 35.528 182.222 35.72 181.55 36.104C180.878 36.488 180.342 37.048 179.942 37.784C179.542 38.52 179.342 39.384 179.342 40.376C179.342 41.384 179.542 42.264 179.942 43.016C180.342 43.752 180.878 44.32 181.55 44.72C182.222 45.104 182.966 45.296 183.782 45.296C184.598 45.296 185.342 45.104 186.014 44.72C186.702 44.32 187.246 43.752 187.646 43.016C188.046 42.264 188.246 41.392 188.246 40.4ZM193.329 40.4C193.329 39.04 193.601 37.856 194.145 36.848C194.689 35.824 195.441 35.032 196.401 34.472C197.377 33.912 198.489 33.632 199.737 33.632C201.353 33.632 202.681 34.024 203.721 34.808C204.777 35.592 205.473 36.68 205.809 38.072H203.457C203.233 37.272 202.793 36.64 202.137 36.176C201.497 35.712 200.697 35.48 199.737 35.48C198.489 35.48 197.481 35.912 196.713 36.776C195.945 37.624 195.561 38.832 195.561 40.4C195.561 41.984 195.945 43.208 196.713 44.072C197.481 44.936 198.489 45.368 199.737 45.368C200.697 45.368 201.497 45.144 202.137 44.696C202.777 44.248 203.217 43.608 203.457 42.776H205.809C205.457 44.12 204.753 45.2 203.697 46.016C202.641 46.816 201.321 47.216 199.737 47.216C198.489 47.216 197.377 46.936 196.401 46.376C195.441 45.816 194.689 45.024 194.145 44C193.601 42.976 193.329 41.776 193.329 40.4ZM207.907 40.4C207.907 39.04 208.179 37.856 208.723 36.848C209.267 35.824 210.019 35.032 210.979 34.472C211.955 33.912 213.067 33.632 214.315 33.632C215.931 33.632 217.259 34.024 218.299 34.808C219.355 35.592 220.051 36.68 220.387 38.072H218.035C217.811 37.272 217.371 36.64 216.715 36.176C216.075 35.712 215.275 35.48 214.315 35.48C213.067 35.48 212.059 35.912 211.291 36.776C210.523 37.624 210.139 38.832 210.139 40.4C210.139 41.984 210.523 43.208 211.291 44.072C212.059 44.936 213.067 45.368 214.315 45.368C215.275 45.368 216.075 45.144 216.715 44.696C217.355 44.248 217.795 43.608 218.035 42.776H220.387C220.035 44.12 219.331 45.2 218.275 46.016C217.219 46.816 215.899 47.216 214.315 47.216C213.067 47.216 211.955 46.936 210.979 46.376C210.019 45.816 209.267 45.024 208.723 44C208.179 42.976 207.907 41.776 207.907 40.4ZM229.037 47.216C227.805 47.216 226.685 46.936 225.677 46.376C224.685 45.816 223.901 45.024 223.325 44C222.765 42.96 222.485 41.76 222.485 40.4C222.485 39.056 222.773 37.872 223.349 36.848C223.941 35.808 224.741 35.016 225.749 34.472C226.757 33.912 227.885 33.632 229.133 33.632C230.381 33.632 231.509 33.912 232.517 34.472C233.525 35.016 234.317 35.8 234.893 36.824C235.485 37.848 235.781 39.04 235.781 40.4C235.781 41.76 235.477 42.96 234.869 44C234.277 45.024 233.469 45.816 232.445 46.376C231.421 46.936 230.285 47.216 229.037 47.216ZM229.037 45.296C229.821 45.296 230.557 45.112 231.245 44.744C231.933 44.376 232.485 43.824 232.901 43.088C233.333 42.352 233.549 41.456 233.549 40.4C233.549 39.344 233.341 38.448 232.925 37.712C232.509 36.976 231.965 36.432 231.293 36.08C230.621 35.712 229.893 35.528 229.109 35.528C228.309 35.528 227.573 35.712 226.901 36.08C226.245 36.432 225.717 36.976 225.317 37.712C224.917 38.448 224.717 39.344 224.717 40.4C224.717 41.472 224.909 42.376 225.293 43.112C225.693 43.848 226.221 44.4 226.877 44.768C227.533 45.12 228.253 45.296 229.037 45.296ZM250.317 33.848V47H248.133V45.056C247.717 45.728 247.133 46.256 246.381 46.64C245.645 47.008 244.829 47.192 243.933 47.192C242.909 47.192 241.989 46.984 241.173 46.568C240.357 46.136 239.709 45.496 239.229 44.648C238.765 43.8 238.533 42.768 238.533 41.552V33.848H240.693V41.264C240.693 42.56 241.021 43.56 241.677 44.264C242.333 44.952 243.229 45.296 244.365 45.296C245.533 45.296 246.453 44.936 247.125 44.216C247.797 43.496 248.133 42.448 248.133 41.072V33.848H250.317ZM260.412 33.608C262.012 33.608 263.308 34.096 264.3 35.072C265.292 36.032 265.788 37.424 265.788 39.248V47H263.628V39.56C263.628 38.248 263.3 37.248 262.644 36.56C261.988 35.856 261.092 35.504 259.956 35.504C258.804 35.504 257.884 35.864 257.196 36.584C256.524 37.304 256.188 38.352 256.188 39.728V47H254.004V33.848H256.188V35.72C256.62 35.048 257.204 34.528 257.94 34.16C258.692 33.792 259.516 33.608 260.412 33.608ZM272.02 35.648V43.4C272.02 44.04 272.156 44.496 272.428 44.768C272.7 45.024 273.172 45.152 273.844 45.152H275.452V47H273.484C272.268 47 271.356 46.72 270.748 46.16C270.14 45.6 269.836 44.68 269.836 43.4V35.648H268.132V33.848H269.836V30.536H272.02V33.848H275.452V35.648H272.02Z" fill="white"/>
<path d="M88.298 9.328L85.904 17H84.588L82.74 10.91L80.892 17H79.576L77.168 9.328H78.47L80.234 15.768L82.138 9.328H83.44L85.302 15.782L87.038 9.328H88.298ZM93.3704 9.188C93.949 9.188 94.4717 9.314 94.9384 9.566C95.405 9.80867 95.769 10.1773 96.0304 10.672C96.301 11.1667 96.4364 11.7687 96.4364 12.478V17H95.1764V12.66C95.1764 11.8947 94.985 11.3113 94.6024 10.91C94.2197 10.4993 93.697 10.294 93.0344 10.294C92.3624 10.294 91.8257 10.504 91.4244 10.924C91.0324 11.344 90.8364 11.9553 90.8364 12.758V17H89.5624V6.64H90.8364V10.42C91.0884 10.028 91.4337 9.72467 91.8724 9.51C92.3204 9.29533 92.8197 9.188 93.3704 9.188ZM99.1755 8.082C98.9328 8.082 98.7275 7.998 98.5595 7.83C98.3915 7.662 98.3075 7.45667 98.3075 7.214C98.3075 6.97133 98.3915 6.766 98.5595 6.598C98.7275 6.43 98.9328 6.346 99.1755 6.346C99.4088 6.346 99.6048 6.43 99.7635 6.598C99.9315 6.766 100.015 6.97133 100.015 7.214C100.015 7.45667 99.9315 7.662 99.7635 7.83C99.6048 7.998 99.4088 8.082 99.1755 8.082ZM99.7915 9.328V17H98.5175V9.328H99.7915ZM103.517 10.378V14.9C103.517 15.2733 103.596 15.5393 103.755 15.698C103.913 15.8473 104.189 15.922 104.581 15.922H105.519V17H104.371C103.661 17 103.129 16.8367 102.775 16.51C102.42 16.1833 102.243 15.6467 102.243 14.9V10.378H101.249V9.328H102.243V7.396H103.517V9.328H105.519V10.378H103.517ZM114.062 12.87C114.062 13.1127 114.048 13.3693 114.02 13.64H107.888C107.935 14.396 108.192 14.9887 108.658 15.418C109.134 15.838 109.708 16.048 110.38 16.048C110.931 16.048 111.388 15.922 111.752 15.67C112.126 15.4087 112.387 15.0633 112.536 14.634H113.908C113.703 15.3713 113.292 15.9733 112.676 16.44C112.06 16.8973 111.295 17.126 110.38 17.126C109.652 17.126 108.999 16.9627 108.42 16.636C107.851 16.3093 107.403 15.8473 107.076 15.25C106.75 14.6433 106.586 13.9433 106.586 13.15C106.586 12.3567 106.745 11.6613 107.062 11.064C107.38 10.4667 107.823 10.0093 108.392 9.692C108.971 9.36533 109.634 9.202 110.38 9.202C111.108 9.202 111.752 9.36067 112.312 9.678C112.872 9.99533 113.302 10.434 113.6 10.994C113.908 11.5447 114.062 12.17 114.062 12.87ZM112.746 12.604C112.746 12.1187 112.639 11.7033 112.424 11.358C112.21 11.0033 111.916 10.7373 111.542 10.56C111.178 10.3733 110.772 10.28 110.324 10.28C109.68 10.28 109.13 10.4853 108.672 10.896C108.224 11.3067 107.968 11.876 107.902 12.604H112.746ZM118.46 17.126C117.872 17.126 117.345 17.028 116.878 16.832C116.411 16.6267 116.043 16.3467 115.772 15.992C115.501 15.628 115.352 15.2127 115.324 14.746H116.64C116.677 15.1287 116.855 15.4413 117.172 15.684C117.499 15.9267 117.923 16.048 118.446 16.048C118.931 16.048 119.314 15.9407 119.594 15.726C119.874 15.5113 120.014 15.2407 120.014 14.914C120.014 14.578 119.865 14.3307 119.566 14.172C119.267 14.004 118.805 13.8407 118.18 13.682C117.611 13.5327 117.144 13.3833 116.78 13.234C116.425 13.0753 116.117 12.8467 115.856 12.548C115.604 12.24 115.478 11.8387 115.478 11.344C115.478 10.952 115.595 10.5927 115.828 10.266C116.061 9.93933 116.393 9.68267 116.822 9.496C117.251 9.3 117.741 9.202 118.292 9.202C119.141 9.202 119.827 9.41667 120.35 9.846C120.873 10.2753 121.153 10.8633 121.19 11.61H119.916C119.888 11.2087 119.725 10.8867 119.426 10.644C119.137 10.4013 118.745 10.28 118.25 10.28C117.793 10.28 117.429 10.378 117.158 10.574C116.887 10.77 116.752 11.0267 116.752 11.344C116.752 11.596 116.831 11.806 116.99 11.974C117.158 12.1327 117.363 12.2633 117.606 12.366C117.858 12.4593 118.203 12.5667 118.642 12.688C119.193 12.8373 119.641 12.9867 119.986 13.136C120.331 13.276 120.625 13.4907 120.868 13.78C121.12 14.0693 121.251 14.4473 121.26 14.914C121.26 15.334 121.143 15.712 120.91 16.048C120.677 16.384 120.345 16.65 119.916 16.846C119.496 17.0327 119.011 17.126 118.46 17.126ZM124.332 10.742C124.584 10.3033 124.958 9.93933 125.452 9.65C125.956 9.35133 126.54 9.202 127.202 9.202C127.884 9.202 128.5 9.36533 129.05 9.692C129.61 10.0187 130.049 10.4807 130.366 11.078C130.684 11.666 130.842 12.352 130.842 13.136C130.842 13.9107 130.684 14.6013 130.366 15.208C130.049 15.8147 129.61 16.286 129.05 16.622C128.5 16.958 127.884 17.126 127.202 17.126C126.549 17.126 125.97 16.9813 125.466 16.692C124.972 16.3933 124.594 16.0247 124.332 15.586V20.64H123.058V9.328H124.332V10.742ZM129.54 13.136C129.54 12.5573 129.424 12.0533 129.19 11.624C128.957 11.1947 128.64 10.868 128.238 10.644C127.846 10.42 127.412 10.308 126.936 10.308C126.47 10.308 126.036 10.4247 125.634 10.658C125.242 10.882 124.925 11.2133 124.682 11.652C124.449 12.0813 124.332 12.5807 124.332 13.15C124.332 13.7287 124.449 14.2373 124.682 14.676C124.925 15.1053 125.242 15.4367 125.634 15.67C126.036 15.894 126.47 16.006 126.936 16.006C127.412 16.006 127.846 15.894 128.238 15.67C128.64 15.4367 128.957 15.1053 129.19 14.676C129.424 14.2373 129.54 13.724 129.54 13.136ZM132.043 13.136C132.043 12.352 132.202 11.666 132.519 11.078C132.837 10.4807 133.271 10.0187 133.821 9.692C134.381 9.36533 135.002 9.202 135.683 9.202C136.355 9.202 136.939 9.34667 137.433 9.636C137.928 9.92533 138.297 10.2893 138.539 10.728V9.328H139.827V17H138.539V15.572C138.287 16.02 137.909 16.3933 137.405 16.692C136.911 16.9813 136.332 17.126 135.669 17.126C134.988 17.126 134.372 16.958 133.821 16.622C133.271 16.286 132.837 15.8147 132.519 15.208C132.202 14.6013 132.043 13.9107 132.043 13.136ZM138.539 13.15C138.539 12.5713 138.423 12.0673 138.189 11.638C137.956 11.2087 137.639 10.882 137.237 10.658C136.845 10.4247 136.411 10.308 135.935 10.308C135.459 10.308 135.025 10.42 134.633 10.644C134.241 10.868 133.929 11.1947 133.695 11.624C133.462 12.0533 133.345 12.5573 133.345 13.136C133.345 13.724 133.462 14.2373 133.695 14.676C133.929 15.1053 134.241 15.4367 134.633 15.67C135.025 15.894 135.459 16.006 135.935 16.006C136.411 16.006 136.845 15.894 137.237 15.67C137.639 15.4367 137.956 15.1053 138.189 14.676C138.423 14.2373 138.539 13.7287 138.539 13.15ZM141.504 13.15C141.504 12.3567 141.663 11.666 141.98 11.078C142.298 10.4807 142.736 10.0187 143.296 9.692C143.866 9.36533 144.514 9.202 145.242 9.202C146.185 9.202 146.96 9.43067 147.566 9.888C148.182 10.3453 148.588 10.98 148.784 11.792H147.412C147.282 11.3253 147.025 10.9567 146.642 10.686C146.269 10.4153 145.802 10.28 145.242 10.28C144.514 10.28 143.926 10.532 143.478 11.036C143.03 11.5307 142.806 12.2353 142.806 13.15C142.806 14.074 143.03 14.788 143.478 15.292C143.926 15.796 144.514 16.048 145.242 16.048C145.802 16.048 146.269 15.9173 146.642 15.656C147.016 15.3947 147.272 15.0213 147.412 14.536H148.784C148.579 15.32 148.168 15.95 147.552 16.426C146.936 16.8927 146.166 17.126 145.242 17.126C144.514 17.126 143.866 16.9627 143.296 16.636C142.736 16.3093 142.298 15.8473 141.98 15.25C141.663 14.6527 141.504 13.9527 141.504 13.15ZM157.484 12.87C157.484 13.1127 157.47 13.3693 157.442 13.64H151.31C151.357 14.396 151.614 14.9887 152.08 15.418C152.556 15.838 153.13 16.048 153.802 16.048C154.353 16.048 154.81 15.922 155.174 15.67C155.548 15.4087 155.809 15.0633 155.958 14.634H157.33C157.125 15.3713 156.714 15.9733 156.098 16.44C155.482 16.8973 154.717 17.126 153.802 17.126C153.074 17.126 152.421 16.9627 151.842 16.636C151.273 16.3093 150.825 15.8473 150.498 15.25C150.172 14.6433 150.008 13.9433 150.008 13.15C150.008 12.3567 150.167 11.6613 150.484 11.064C150.802 10.4667 151.245 10.0093 151.814 9.692C152.393 9.36533 153.056 9.202 153.802 9.202C154.53 9.202 155.174 9.36067 155.734 9.678C156.294 9.99533 156.724 10.434 157.022 10.994C157.33 11.5447 157.484 12.17 157.484 12.87ZM156.168 12.604C156.168 12.1187 156.061 11.7033 155.846 11.358C155.632 11.0033 155.338 10.7373 154.964 10.56C154.6 10.3733 154.194 10.28 153.746 10.28C153.102 10.28 152.552 10.4853 152.094 10.896C151.646 11.3067 151.39 11.876 151.324 12.604H156.168ZM159.572 17.084C159.329 17.084 159.124 17 158.956 16.832C158.788 16.664 158.704 16.4587 158.704 16.216C158.704 15.9733 158.788 15.768 158.956 15.6C159.124 15.432 159.329 15.348 159.572 15.348C159.805 15.348 160.001 15.432 160.16 15.6C160.328 15.768 160.412 15.9733 160.412 16.216C160.412 16.4587 160.328 16.664 160.16 16.832C160.001 17 159.805 17.084 159.572 17.084Z" fill="white"/>
<defs>
<clipPath id="clip0">
<path d="M0 2C0 0.89543 0.895431 0 2 0H57C58.1046 0 59 0.895431 59 2V57C59 58.1046 58.1046 59 57 59H2C0.89543 59 0 58.1046 0 57V2Z" fill="white"/>
</clipPath>
</defs>
</svg>
