<svg width="303" height="59" viewBox="0 0 303 59" fill="none" xmlns="http://www.w3.org/2000/svg">
<g clip-path="url(#clip0)">
<path fill-rule="evenodd" clip-rule="evenodd" d="M29.5002 59V29.5H0.000176544V29.3968C5.88824e-05 29.4312 0 29.4656 0 29.5C0 45.7925 13.2076 59 29.5 59H29.5002Z" fill="white"/>
<path fill-rule="evenodd" clip-rule="evenodd" d="M29.4998 59V29.5H58.9998V29.3968C59 29.4312 59 29.4656 59 29.5C59 45.7925 45.7925 59 29.5 59H29.4998Z" fill="#D5D5D5"/>
<path d="M59 0H29.5V29.5H59V0Z" fill="#C5C5C5"/>
<path d="M13.7667 15.7333L29.5 0V29.5H0L13.7667 15.7333Z" fill="#A0A0A0"/>
<path d="M5.9 11.8C9.15848 11.8 11.8 9.15848 11.8 5.9C11.8 2.64152 9.15848 0 5.9 0C2.64152 0 0 2.64152 0 5.9C0 9.15848 2.64152 11.8 5.9 11.8Z" fill="#2196F3"/>
</g>
<path d="M77.032 38.624C77.032 36.992 77.4 35.528 78.136 34.232C78.872 32.92 79.872 31.896 81.136 31.16C82.416 30.424 83.832 30.056 85.384 30.056C87.208 30.056 88.8 30.496 90.16 31.376C91.52 32.256 92.512 33.504 93.136 35.12H90.52C90.056 34.112 89.384 33.336 88.504 32.792C87.64 32.248 86.6 31.976 85.384 31.976C84.216 31.976 83.168 32.248 82.24 32.792C81.312 33.336 80.584 34.112 80.056 35.12C79.528 36.112 79.264 37.28 79.264 38.624C79.264 39.952 79.528 41.12 80.056 42.128C80.584 43.12 81.312 43.888 82.24 44.432C83.168 44.976 84.216 45.248 85.384 45.248C86.6 45.248 87.64 44.984 88.504 44.456C89.384 43.912 90.056 43.136 90.52 42.128H93.136C92.512 43.728 91.52 44.968 90.16 45.848C88.8 46.712 87.208 47.144 85.384 47.144C83.832 47.144 82.416 46.784 81.136 46.064C79.872 45.328 78.872 44.312 78.136 43.016C77.4 41.72 77.032 40.256 77.032 38.624ZM98.5711 35.984C98.9551 35.232 99.4991 34.648 100.203 34.232C100.923 33.816 101.795 33.608 102.819 33.608V35.864H102.243C99.7951 35.864 98.5711 37.192 98.5711 39.848V47H96.3871V33.848H98.5711V35.984ZM117.34 39.92C117.34 40.336 117.316 40.776 117.268 41.24H106.756C106.836 42.536 107.276 43.552 108.076 44.288C108.892 45.008 109.876 45.368 111.028 45.368C111.972 45.368 112.756 45.152 113.38 44.72C114.02 44.272 114.468 43.68 114.724 42.944H117.076C116.724 44.208 116.02 45.24 114.964 46.04C113.908 46.824 112.596 47.216 111.028 47.216C109.78 47.216 108.66 46.936 107.668 46.376C106.692 45.816 105.924 45.024 105.364 44C104.804 42.96 104.524 41.76 104.524 40.4C104.524 39.04 104.796 37.848 105.34 36.824C105.884 35.8 106.644 35.016 107.62 34.472C108.612 33.912 109.748 33.632 111.028 33.632C112.276 33.632 113.38 33.904 114.34 34.448C115.3 34.992 116.036 35.744 116.548 36.704C117.076 37.648 117.34 38.72 117.34 39.92ZM115.084 39.464C115.084 38.632 114.9 37.92 114.532 37.328C114.164 36.72 113.66 36.264 113.02 35.96C112.396 35.64 111.7 35.48 110.932 35.48C109.828 35.48 108.884 35.832 108.1 36.536C107.332 37.24 106.892 38.216 106.78 39.464H115.084ZM119.407 40.376C119.407 39.032 119.679 37.856 120.223 36.848C120.767 35.824 121.511 35.032 122.455 34.472C123.415 33.912 124.479 33.632 125.647 33.632C126.799 33.632 127.799 33.88 128.647 34.376C129.495 34.872 130.127 35.496 130.543 36.248V33.848H132.751V47H130.543V44.552C130.111 45.32 129.463 45.96 128.599 46.472C127.751 46.968 126.759 47.216 125.623 47.216C124.455 47.216 123.399 46.928 122.455 46.352C121.511 45.776 120.767 44.968 120.223 43.928C119.679 42.888 119.407 41.704 119.407 40.376ZM130.543 40.4C130.543 39.408 130.343 38.544 129.943 37.808C129.543 37.072 128.999 36.512 128.311 36.128C127.639 35.728 126.895 35.528 126.079 35.528C125.263 35.528 124.519 35.72 123.847 36.104C123.175 36.488 122.639 37.048 122.239 37.784C121.839 38.52 121.639 39.384 121.639 40.376C121.639 41.384 121.839 42.264 122.239 43.016C122.639 43.752 123.175 44.32 123.847 44.72C124.519 45.104 125.263 45.296 126.079 45.296C126.895 45.296 127.639 45.104 128.311 44.72C128.999 44.32 129.543 43.752 129.943 43.016C130.343 42.264 130.543 41.392 130.543 40.4ZM139.106 35.648V43.4C139.106 44.04 139.242 44.496 139.514 44.768C139.786 45.024 140.258 45.152 140.93 45.152H142.538V47H140.57C139.354 47 138.442 46.72 137.834 46.16C137.226 45.6 136.922 44.68 136.922 43.4V35.648H135.218V33.848H136.922V30.536H139.106V33.848H142.538V35.648H139.106ZM157.184 39.92C157.184 40.336 157.16 40.776 157.112 41.24H146.6C146.68 42.536 147.12 43.552 147.92 44.288C148.736 45.008 149.72 45.368 150.872 45.368C151.816 45.368 152.6 45.152 153.224 44.72C153.864 44.272 154.312 43.68 154.568 42.944H156.92C156.568 44.208 155.864 45.24 154.808 46.04C153.752 46.824 152.44 47.216 150.872 47.216C149.624 47.216 148.504 46.936 147.512 46.376C146.536 45.816 145.768 45.024 145.208 44C144.648 42.96 144.368 41.76 144.368 40.4C144.368 39.04 144.64 37.848 145.184 36.824C145.728 35.8 146.488 35.016 147.464 34.472C148.456 33.912 149.592 33.632 150.872 33.632C152.12 33.632 153.224 33.904 154.184 34.448C155.144 34.992 155.88 35.744 156.392 36.704C156.92 37.648 157.184 38.72 157.184 39.92ZM154.928 39.464C154.928 38.632 154.744 37.92 154.376 37.328C154.008 36.72 153.504 36.264 152.864 35.96C152.24 35.64 151.544 35.48 150.776 35.48C149.672 35.48 148.728 35.832 147.944 36.536C147.176 37.24 146.736 38.216 146.624 39.464H154.928ZM165.649 40.376C165.649 39.032 165.921 37.856 166.465 36.848C167.009 35.824 167.753 35.032 168.697 34.472C169.657 33.912 170.721 33.632 171.889 33.632C173.041 33.632 174.041 33.88 174.889 34.376C175.737 34.872 176.369 35.496 176.785 36.248V33.848H178.993V47H176.785V44.552C176.353 45.32 175.705 45.96 174.841 46.472C173.993 46.968 173.001 47.216 171.865 47.216C170.697 47.216 169.641 46.928 168.697 46.352C167.753 45.776 167.009 44.968 166.465 43.928C165.921 42.888 165.649 41.704 165.649 40.376ZM176.785 40.4C176.785 39.408 176.585 38.544 176.185 37.808C175.785 37.072 175.241 36.512 174.553 36.128C173.881 35.728 173.137 35.528 172.321 35.528C171.505 35.528 170.761 35.72 170.089 36.104C169.417 36.488 168.881 37.048 168.481 37.784C168.081 38.52 167.881 39.384 167.881 40.376C167.881 41.384 168.081 42.264 168.481 43.016C168.881 43.752 169.417 44.32 170.089 44.72C170.761 45.104 171.505 45.296 172.321 45.296C173.137 45.296 173.881 45.104 174.553 44.72C175.241 44.32 175.785 43.752 176.185 43.016C176.585 42.264 176.785 41.392 176.785 40.4ZM189.092 33.608C190.692 33.608 191.988 34.096 192.98 35.072C193.972 36.032 194.468 37.424 194.468 39.248V47H192.308V39.56C192.308 38.248 191.98 37.248 191.324 36.56C190.668 35.856 189.772 35.504 188.636 35.504C187.484 35.504 186.564 35.864 185.876 36.584C185.204 37.304 184.868 38.352 184.868 39.728V47H182.684V33.848H184.868V35.72C185.3 35.048 185.884 34.528 186.62 34.16C187.372 33.792 188.196 33.608 189.092 33.608ZM203.618 40.376C203.618 39.032 203.89 37.856 204.434 36.848C204.978 35.824 205.722 35.032 206.666 34.472C207.626 33.912 208.69 33.632 209.858 33.632C211.01 33.632 212.01 33.88 212.858 34.376C213.706 34.872 214.338 35.496 214.754 36.248V33.848H216.962V47H214.754V44.552C214.322 45.32 213.674 45.96 212.81 46.472C211.962 46.968 210.97 47.216 209.834 47.216C208.666 47.216 207.61 46.928 206.666 46.352C205.722 45.776 204.978 44.968 204.434 43.928C203.89 42.888 203.618 41.704 203.618 40.376ZM214.754 40.4C214.754 39.408 214.554 38.544 214.154 37.808C213.754 37.072 213.21 36.512 212.522 36.128C211.85 35.728 211.106 35.528 210.29 35.528C209.474 35.528 208.73 35.72 208.058 36.104C207.386 36.488 206.85 37.048 206.45 37.784C206.05 38.52 205.85 39.384 205.85 40.376C205.85 41.384 206.05 42.264 206.45 43.016C206.85 43.752 207.386 44.32 208.058 44.72C208.73 45.104 209.474 45.296 210.29 45.296C211.106 45.296 211.85 45.104 212.522 44.72C213.21 44.32 213.754 43.752 214.154 43.016C214.554 42.264 214.754 41.392 214.754 40.4ZM219.837 40.4C219.837 39.04 220.109 37.856 220.653 36.848C221.197 35.824 221.949 35.032 222.909 34.472C223.885 33.912 224.997 33.632 226.245 33.632C227.861 33.632 229.189 34.024 230.229 34.808C231.285 35.592 231.981 36.68 232.317 38.072H229.965C229.741 37.272 229.301 36.64 228.645 36.176C228.005 35.712 227.205 35.48 226.245 35.48C224.997 35.48 223.989 35.912 223.221 36.776C222.453 37.624 222.069 38.832 222.069 40.4C222.069 41.984 222.453 43.208 223.221 44.072C223.989 44.936 224.997 45.368 226.245 45.368C227.205 45.368 228.005 45.144 228.645 44.696C229.285 44.248 229.725 43.608 229.965 42.776H232.317C231.965 44.12 231.261 45.2 230.205 46.016C229.149 46.816 227.829 47.216 226.245 47.216C224.997 47.216 223.885 46.936 222.909 46.376C221.949 45.816 221.197 45.024 220.653 44C220.109 42.976 219.837 41.776 219.837 40.4ZM234.415 40.4C234.415 39.04 234.687 37.856 235.231 36.848C235.775 35.824 236.527 35.032 237.487 34.472C238.463 33.912 239.575 33.632 240.823 33.632C242.439 33.632 243.767 34.024 244.807 34.808C245.863 35.592 246.559 36.68 246.895 38.072H244.543C244.319 37.272 243.879 36.64 243.223 36.176C242.583 35.712 241.783 35.48 240.823 35.48C239.575 35.48 238.567 35.912 237.799 36.776C237.031 37.624 236.647 38.832 236.647 40.4C236.647 41.984 237.031 43.208 237.799 44.072C238.567 44.936 239.575 45.368 240.823 45.368C241.783 45.368 242.583 45.144 243.223 44.696C243.863 44.248 244.303 43.608 244.543 42.776H246.895C246.543 44.12 245.839 45.2 244.783 46.016C243.727 46.816 242.407 47.216 240.823 47.216C239.575 47.216 238.463 46.936 237.487 46.376C236.527 45.816 235.775 45.024 235.231 44C234.687 42.976 234.415 41.776 234.415 40.4ZM255.545 47.216C254.313 47.216 253.193 46.936 252.185 46.376C251.193 45.816 250.409 45.024 249.833 44C249.273 42.96 248.993 41.76 248.993 40.4C248.993 39.056 249.281 37.872 249.857 36.848C250.449 35.808 251.249 35.016 252.257 34.472C253.265 33.912 254.393 33.632 255.641 33.632C256.889 33.632 258.017 33.912 259.025 34.472C260.033 35.016 260.825 35.8 261.401 36.824C261.993 37.848 262.289 39.04 262.289 40.4C262.289 41.76 261.985 42.96 261.377 44C260.785 45.024 259.977 45.816 258.953 46.376C257.929 46.936 256.793 47.216 255.545 47.216ZM255.545 45.296C256.329 45.296 257.065 45.112 257.753 44.744C258.441 44.376 258.993 43.824 259.409 43.088C259.841 42.352 260.057 41.456 260.057 40.4C260.057 39.344 259.849 38.448 259.433 37.712C259.017 36.976 258.473 36.432 257.801 36.08C257.129 35.712 256.401 35.528 255.617 35.528C254.817 35.528 254.081 35.712 253.409 36.08C252.753 36.432 252.225 36.976 251.825 37.712C251.425 38.448 251.225 39.344 251.225 40.4C251.225 41.472 251.417 42.376 251.801 43.112C252.201 43.848 252.729 44.4 253.385 44.768C254.041 45.12 254.761 45.296 255.545 45.296ZM276.825 33.848V47H274.641V45.056C274.225 45.728 273.641 46.256 272.889 46.64C272.153 47.008 271.337 47.192 270.441 47.192C269.417 47.192 268.497 46.984 267.681 46.568C266.865 46.136 266.217 45.496 265.737 44.648C265.273 43.8 265.041 42.768 265.041 41.552V33.848H267.201V41.264C267.201 42.56 267.529 43.56 268.185 44.264C268.841 44.952 269.737 45.296 270.873 45.296C272.041 45.296 272.961 44.936 273.633 44.216C274.305 43.496 274.641 42.448 274.641 41.072V33.848H276.825ZM286.92 33.608C288.52 33.608 289.816 34.096 290.808 35.072C291.8 36.032 292.296 37.424 292.296 39.248V47H290.136V39.56C290.136 38.248 289.808 37.248 289.152 36.56C288.496 35.856 287.6 35.504 286.464 35.504C285.312 35.504 284.392 35.864 283.704 36.584C283.032 37.304 282.696 38.352 282.696 39.728V47H280.512V33.848H282.696V35.72C283.128 35.048 283.712 34.528 284.448 34.16C285.2 33.792 286.024 33.608 286.92 33.608ZM298.528 35.648V43.4C298.528 44.04 298.664 44.496 298.936 44.768C299.208 45.024 299.68 45.152 300.352 45.152H301.96V47H299.992C298.776 47 297.864 46.72 297.256 46.16C296.648 45.6 296.344 44.68 296.344 43.4V35.648H294.64V33.848H296.344V30.536H298.528V33.848H301.96V35.648H298.528Z" fill="white"/>
<path d="M88.298 9.328L85.904 17H84.588L82.74 10.91L80.892 17H79.576L77.168 9.328H78.47L80.234 15.768L82.138 9.328H83.44L85.302 15.782L87.038 9.328H88.298ZM93.3704 9.188C93.949 9.188 94.4717 9.314 94.9384 9.566C95.405 9.80867 95.769 10.1773 96.0304 10.672C96.301 11.1667 96.4364 11.7687 96.4364 12.478V17H95.1764V12.66C95.1764 11.8947 94.985 11.3113 94.6024 10.91C94.2197 10.4993 93.697 10.294 93.0344 10.294C92.3624 10.294 91.8257 10.504 91.4244 10.924C91.0324 11.344 90.8364 11.9553 90.8364 12.758V17H89.5624V6.64H90.8364V10.42C91.0884 10.028 91.4337 9.72467 91.8724 9.51C92.3204 9.29533 92.8197 9.188 93.3704 9.188ZM99.1755 8.082C98.9328 8.082 98.7275 7.998 98.5595 7.83C98.3915 7.662 98.3075 7.45667 98.3075 7.214C98.3075 6.97133 98.3915 6.766 98.5595 6.598C98.7275 6.43 98.9328 6.346 99.1755 6.346C99.4088 6.346 99.6048 6.43 99.7635 6.598C99.9315 6.766 100.015 6.97133 100.015 7.214C100.015 7.45667 99.9315 7.662 99.7635 7.83C99.6048 7.998 99.4088 8.082 99.1755 8.082ZM99.7915 9.328V17H98.5175V9.328H99.7915ZM103.517 10.378V14.9C103.517 15.2733 103.596 15.5393 103.755 15.698C103.913 15.8473 104.189 15.922 104.581 15.922H105.519V17H104.371C103.661 17 103.129 16.8367 102.775 16.51C102.42 16.1833 102.243 15.6467 102.243 14.9V10.378H101.249V9.328H102.243V7.396H103.517V9.328H105.519V10.378H103.517ZM114.062 12.87C114.062 13.1127 114.048 13.3693 114.02 13.64H107.888C107.935 14.396 108.192 14.9887 108.658 15.418C109.134 15.838 109.708 16.048 110.38 16.048C110.931 16.048 111.388 15.922 111.752 15.67C112.126 15.4087 112.387 15.0633 112.536 14.634H113.908C113.703 15.3713 113.292 15.9733 112.676 16.44C112.06 16.8973 111.295 17.126 110.38 17.126C109.652 17.126 108.999 16.9627 108.42 16.636C107.851 16.3093 107.403 15.8473 107.076 15.25C106.75 14.6433 106.586 13.9433 106.586 13.15C106.586 12.3567 106.745 11.6613 107.062 11.064C107.38 10.4667 107.823 10.0093 108.392 9.692C108.971 9.36533 109.634 9.202 110.38 9.202C111.108 9.202 111.752 9.36067 112.312 9.678C112.872 9.99533 113.302 10.434 113.6 10.994C113.908 11.5447 114.062 12.17 114.062 12.87ZM112.746 12.604C112.746 12.1187 112.639 11.7033 112.424 11.358C112.21 11.0033 111.916 10.7373 111.542 10.56C111.178 10.3733 110.772 10.28 110.324 10.28C109.68 10.28 109.13 10.4853 108.672 10.896C108.224 11.3067 107.968 11.876 107.902 12.604H112.746ZM118.46 17.126C117.872 17.126 117.345 17.028 116.878 16.832C116.411 16.6267 116.043 16.3467 115.772 15.992C115.501 15.628 115.352 15.2127 115.324 14.746H116.64C116.677 15.1287 116.855 15.4413 117.172 15.684C117.499 15.9267 117.923 16.048 118.446 16.048C118.931 16.048 119.314 15.9407 119.594 15.726C119.874 15.5113 120.014 15.2407 120.014 14.914C120.014 14.578 119.865 14.3307 119.566 14.172C119.267 14.004 118.805 13.8407 118.18 13.682C117.611 13.5327 117.144 13.3833 116.78 13.234C116.425 13.0753 116.117 12.8467 115.856 12.548C115.604 12.24 115.478 11.8387 115.478 11.344C115.478 10.952 115.595 10.5927 115.828 10.266C116.061 9.93933 116.393 9.68267 116.822 9.496C117.251 9.3 117.741 9.202 118.292 9.202C119.141 9.202 119.827 9.41667 120.35 9.846C120.873 10.2753 121.153 10.8633 121.19 11.61H119.916C119.888 11.2087 119.725 10.8867 119.426 10.644C119.137 10.4013 118.745 10.28 118.25 10.28C117.793 10.28 117.429 10.378 117.158 10.574C116.887 10.77 116.752 11.0267 116.752 11.344C116.752 11.596 116.831 11.806 116.99 11.974C117.158 12.1327 117.363 12.2633 117.606 12.366C117.858 12.4593 118.203 12.5667 118.642 12.688C119.193 12.8373 119.641 12.9867 119.986 13.136C120.331 13.276 120.625 13.4907 120.868 13.78C121.12 14.0693 121.251 14.4473 121.26 14.914C121.26 15.334 121.143 15.712 120.91 16.048C120.677 16.384 120.345 16.65 119.916 16.846C119.496 17.0327 119.011 17.126 118.46 17.126ZM124.332 10.742C124.584 10.3033 124.958 9.93933 125.452 9.65C125.956 9.35133 126.54 9.202 127.202 9.202C127.884 9.202 128.5 9.36533 129.05 9.692C129.61 10.0187 130.049 10.4807 130.366 11.078C130.684 11.666 130.842 12.352 130.842 13.136C130.842 13.9107 130.684 14.6013 130.366 15.208C130.049 15.8147 129.61 16.286 129.05 16.622C128.5 16.958 127.884 17.126 127.202 17.126C126.549 17.126 125.97 16.9813 125.466 16.692C124.972 16.3933 124.594 16.0247 124.332 15.586V20.64H123.058V9.328H124.332V10.742ZM129.54 13.136C129.54 12.5573 129.424 12.0533 129.19 11.624C128.957 11.1947 128.64 10.868 128.238 10.644C127.846 10.42 127.412 10.308 126.936 10.308C126.47 10.308 126.036 10.4247 125.634 10.658C125.242 10.882 124.925 11.2133 124.682 11.652C124.449 12.0813 124.332 12.5807 124.332 13.15C124.332 13.7287 124.449 14.2373 124.682 14.676C124.925 15.1053 125.242 15.4367 125.634 15.67C126.036 15.894 126.47 16.006 126.936 16.006C127.412 16.006 127.846 15.894 128.238 15.67C128.64 15.4367 128.957 15.1053 129.19 14.676C129.424 14.2373 129.54 13.724 129.54 13.136ZM132.043 13.136C132.043 12.352 132.202 11.666 132.519 11.078C132.837 10.4807 133.271 10.0187 133.821 9.692C134.381 9.36533 135.002 9.202 135.683 9.202C136.355 9.202 136.939 9.34667 137.433 9.636C137.928 9.92533 138.297 10.2893 138.539 10.728V9.328H139.827V17H138.539V15.572C138.287 16.02 137.909 16.3933 137.405 16.692C136.911 16.9813 136.332 17.126 135.669 17.126C134.988 17.126 134.372 16.958 133.821 16.622C133.271 16.286 132.837 15.8147 132.519 15.208C132.202 14.6013 132.043 13.9107 132.043 13.136ZM138.539 13.15C138.539 12.5713 138.423 12.0673 138.189 11.638C137.956 11.2087 137.639 10.882 137.237 10.658C136.845 10.4247 136.411 10.308 135.935 10.308C135.459 10.308 135.025 10.42 134.633 10.644C134.241 10.868 133.929 11.1947 133.695 11.624C133.462 12.0533 133.345 12.5573 133.345 13.136C133.345 13.724 133.462 14.2373 133.695 14.676C133.929 15.1053 134.241 15.4367 134.633 15.67C135.025 15.894 135.459 16.006 135.935 16.006C136.411 16.006 136.845 15.894 137.237 15.67C137.639 15.4367 137.956 15.1053 138.189 14.676C138.423 14.2373 138.539 13.7287 138.539 13.15ZM141.504 13.15C141.504 12.3567 141.663 11.666 141.98 11.078C142.298 10.4807 142.736 10.0187 143.296 9.692C143.866 9.36533 144.514 9.202 145.242 9.202C146.185 9.202 146.96 9.43067 147.566 9.888C148.182 10.3453 148.588 10.98 148.784 11.792H147.412C147.282 11.3253 147.025 10.9567 146.642 10.686C146.269 10.4153 145.802 10.28 145.242 10.28C144.514 10.28 143.926 10.532 143.478 11.036C143.03 11.5307 142.806 12.2353 142.806 13.15C142.806 14.074 143.03 14.788 143.478 15.292C143.926 15.796 144.514 16.048 145.242 16.048C145.802 16.048 146.269 15.9173 146.642 15.656C147.016 15.3947 147.272 15.0213 147.412 14.536H148.784C148.579 15.32 148.168 15.95 147.552 16.426C146.936 16.8927 146.166 17.126 145.242 17.126C144.514 17.126 143.866 16.9627 143.296 16.636C142.736 16.3093 142.298 15.8473 141.98 15.25C141.663 14.6527 141.504 13.9527 141.504 13.15ZM157.484 12.87C157.484 13.1127 157.47 13.3693 157.442 13.64H151.31C151.357 14.396 151.614 14.9887 152.08 15.418C152.556 15.838 153.13 16.048 153.802 16.048C154.353 16.048 154.81 15.922 155.174 15.67C155.548 15.4087 155.809 15.0633 155.958 14.634H157.33C157.125 15.3713 156.714 15.9733 156.098 16.44C155.482 16.8973 154.717 17.126 153.802 17.126C153.074 17.126 152.421 16.9627 151.842 16.636C151.273 16.3093 150.825 15.8473 150.498 15.25C150.172 14.6433 150.008 13.9433 150.008 13.15C150.008 12.3567 150.167 11.6613 150.484 11.064C150.802 10.4667 151.245 10.0093 151.814 9.692C152.393 9.36533 153.056 9.202 153.802 9.202C154.53 9.202 155.174 9.36067 155.734 9.678C156.294 9.99533 156.724 10.434 157.022 10.994C157.33 11.5447 157.484 12.17 157.484 12.87ZM156.168 12.604C156.168 12.1187 156.061 11.7033 155.846 11.358C155.632 11.0033 155.338 10.7373 154.964 10.56C154.6 10.3733 154.194 10.28 153.746 10.28C153.102 10.28 152.552 10.4853 152.094 10.896C151.646 11.3067 151.39 11.876 151.324 12.604H156.168ZM159.572 17.084C159.329 17.084 159.124 17 158.956 16.832C158.788 16.664 158.704 16.4587 158.704 16.216C158.704 15.9733 158.788 15.768 158.956 15.6C159.124 15.432 159.329 15.348 159.572 15.348C159.805 15.348 160.001 15.432 160.16 15.6C160.328 15.768 160.412 15.9733 160.412 16.216C160.412 16.4587 160.328 16.664 160.16 16.832C160.001 17 159.805 17.084 159.572 17.084Z" fill="white"/>
<defs>
<clipPath id="clip0">
<path d="M0 2C0 0.89543 0.895431 0 2 0H57C58.1046 0 59 0.895431 59 2V57C59 58.1046 58.1046 59 57 59H2C0.89543 59 0 58.1046 0 57V2Z" fill="white"/>
</clipPath>
</defs>
</svg>
