<svg width="224" height="59" viewBox="0 0 224 59" fill="none" xmlns="http://www.w3.org/2000/svg">
<g clip-path="url(#clip0)">
<path fill-rule="evenodd" clip-rule="evenodd" d="M29.5002 59V29.5H0.000176544V29.3968C5.88824e-05 29.4312 0 29.4656 0 29.5C0 45.7925 13.2076 59 29.5 59H29.5002Z" fill="white"/>
<path fill-rule="evenodd" clip-rule="evenodd" d="M29.4998 59V29.5H58.9998V29.3968C59 29.4312 59 29.4656 59 29.5C59 45.7925 45.7925 59 29.5 59H29.4998Z" fill="#D5D5D5"/>
<path d="M59 0H29.5V29.5H59V0Z" fill="#C5C5C5"/>
<path d="M13.7667 15.7333L29.5 0V29.5H0L13.7667 15.7333Z" fill="#A0A0A0"/>
<path d="M5.9 11.8C9.15848 11.8 11.8 9.15848 11.8 5.9C11.8 2.64152 9.15848 0 5.9 0C2.64152 0 0 2.64152 0 5.9C0 9.15848 2.64152 11.8 5.9 11.8Z" fill="#2196F3"/>
</g>
<path d="M98.872 16.272L94.024 33H91.576L87.688 19.536L83.656 33L81.232 33.024L76.552 16.272H78.88L82.528 30.456L86.56 16.272H89.008L92.848 30.408L96.52 16.272H98.872ZM107.79 19.608C108.782 19.608 109.678 19.824 110.478 20.256C111.278 20.672 111.902 21.304 112.35 22.152C112.814 23 113.046 24.032 113.046 25.248V33H110.886V25.56C110.886 24.248 110.558 23.248 109.902 22.56C109.246 21.856 108.35 21.504 107.214 21.504C106.062 21.504 105.142 21.864 104.454 22.584C103.782 23.304 103.446 24.352 103.446 25.728V33H101.262V15.24H103.446V21.72C103.878 21.048 104.47 20.528 105.222 20.16C105.99 19.792 106.846 19.608 107.79 19.608ZM117.742 17.712C117.326 17.712 116.974 17.568 116.686 17.28C116.398 16.992 116.254 16.64 116.254 16.224C116.254 15.808 116.398 15.456 116.686 15.168C116.974 14.88 117.326 14.736 117.742 14.736C118.142 14.736 118.478 14.88 118.75 15.168C119.038 15.456 119.182 15.808 119.182 16.224C119.182 16.64 119.038 16.992 118.75 17.28C118.478 17.568 118.142 17.712 117.742 17.712ZM118.798 19.848V33H116.614V19.848H118.798ZM125.184 21.648V29.4C125.184 30.04 125.32 30.496 125.592 30.768C125.864 31.024 126.336 31.152 127.008 31.152H128.616V33H126.648C125.432 33 124.52 32.72 123.912 32.16C123.304 31.6 123 30.68 123 29.4V21.648H121.296V19.848H123V16.536H125.184V19.848H128.616V21.648H125.184ZM143.262 25.92C143.262 26.336 143.238 26.776 143.19 27.24H132.678C132.758 28.536 133.198 29.552 133.998 30.288C134.814 31.008 135.798 31.368 136.95 31.368C137.894 31.368 138.678 31.152 139.302 30.72C139.942 30.272 140.39 29.68 140.646 28.944H142.998C142.646 30.208 141.942 31.24 140.886 32.04C139.83 32.824 138.518 33.216 136.95 33.216C135.702 33.216 134.582 32.936 133.59 32.376C132.614 31.816 131.846 31.024 131.286 30C130.726 28.96 130.446 27.76 130.446 26.4C130.446 25.04 130.718 23.848 131.262 22.824C131.806 21.8 132.566 21.016 133.542 20.472C134.534 19.912 135.67 19.632 136.95 19.632C138.198 19.632 139.302 19.904 140.262 20.448C141.222 20.992 141.958 21.744 142.47 22.704C142.998 23.648 143.262 24.72 143.262 25.92ZM141.006 25.464C141.006 24.632 140.822 23.92 140.454 23.328C140.086 22.72 139.582 22.264 138.942 21.96C138.318 21.64 137.622 21.48 136.854 21.48C135.75 21.48 134.806 21.832 134.022 22.536C133.254 23.24 132.814 24.216 132.702 25.464H141.006ZM150.801 33.216C149.793 33.216 148.889 33.048 148.089 32.712C147.289 32.36 146.657 31.88 146.193 31.272C145.729 30.648 145.473 29.936 145.425 29.136H147.681C147.745 29.792 148.049 30.328 148.593 30.744C149.153 31.16 149.881 31.368 150.777 31.368C151.609 31.368 152.265 31.184 152.745 30.816C153.225 30.448 153.465 29.984 153.465 29.424C153.465 28.848 153.209 28.424 152.697 28.152C152.185 27.864 151.393 27.584 150.321 27.312C149.345 27.056 148.545 26.8 147.921 26.544C147.313 26.272 146.785 25.88 146.337 25.368C145.905 24.84 145.689 24.152 145.689 23.304C145.689 22.632 145.889 22.016 146.289 21.456C146.689 20.896 147.257 20.456 147.993 20.136C148.729 19.8 149.569 19.632 150.513 19.632C151.969 19.632 153.145 20 154.041 20.736C154.937 21.472 155.417 22.48 155.481 23.76H153.297C153.249 23.072 152.969 22.52 152.457 22.104C151.961 21.688 151.289 21.48 150.441 21.48C149.657 21.48 149.033 21.648 148.569 21.984C148.105 22.32 147.873 22.76 147.873 23.304C147.873 23.736 148.009 24.096 148.281 24.384C148.569 24.656 148.921 24.88 149.337 25.056C149.769 25.216 150.361 25.4 151.113 25.608C152.057 25.864 152.825 26.12 153.417 26.376C154.009 26.616 154.513 26.984 154.929 27.48C155.361 27.976 155.585 28.624 155.601 29.424C155.601 30.144 155.401 30.792 155.001 31.368C154.601 31.944 154.033 32.4 153.297 32.736C152.577 33.056 151.745 33.216 150.801 33.216ZM160.868 22.272C161.3 21.52 161.94 20.896 162.788 20.4C163.652 19.888 164.652 19.632 165.788 19.632C166.956 19.632 168.012 19.912 168.956 20.472C169.916 21.032 170.668 21.824 171.212 22.848C171.756 23.856 172.028 25.032 172.028 26.376C172.028 27.704 171.756 28.888 171.212 29.928C170.668 30.968 169.916 31.776 168.956 32.352C168.012 32.928 166.956 33.216 165.788 33.216C164.668 33.216 163.676 32.968 162.812 32.472C161.964 31.96 161.316 31.328 160.868 30.576V39.24H158.684V19.848H160.868V22.272ZM169.796 26.376C169.796 25.384 169.596 24.52 169.196 23.784C168.796 23.048 168.252 22.488 167.564 22.104C166.892 21.72 166.148 21.528 165.332 21.528C164.532 21.528 163.788 21.728 163.1 22.128C162.428 22.512 161.884 23.08 161.468 23.832C161.068 24.568 160.868 25.424 160.868 26.4C160.868 27.392 161.068 28.264 161.468 29.016C161.884 29.752 162.428 30.32 163.1 30.72C163.788 31.104 164.532 31.296 165.332 31.296C166.148 31.296 166.892 31.104 167.564 30.72C168.252 30.32 168.796 29.752 169.196 29.016C169.596 28.264 169.796 27.384 169.796 26.376ZM174.087 26.376C174.087 25.032 174.359 23.856 174.903 22.848C175.447 21.824 176.191 21.032 177.135 20.472C178.095 19.912 179.159 19.632 180.327 19.632C181.479 19.632 182.479 19.88 183.327 20.376C184.175 20.872 184.807 21.496 185.223 22.248V19.848H187.431V33H185.223V30.552C184.791 31.32 184.143 31.96 183.279 32.472C182.431 32.968 181.439 33.216 180.303 33.216C179.135 33.216 178.079 32.928 177.135 32.352C176.191 31.776 175.447 30.968 174.903 29.928C174.359 28.888 174.087 27.704 174.087 26.376ZM185.223 26.4C185.223 25.408 185.023 24.544 184.623 23.808C184.223 23.072 183.679 22.512 182.991 22.128C182.319 21.728 181.575 21.528 180.759 21.528C179.943 21.528 179.199 21.72 178.527 22.104C177.855 22.488 177.319 23.048 176.919 23.784C176.519 24.52 176.319 25.384 176.319 26.376C176.319 27.384 176.519 28.264 176.919 29.016C177.319 29.752 177.855 30.32 178.527 30.72C179.199 31.104 179.943 31.296 180.759 31.296C181.575 31.296 182.319 31.104 182.991 30.72C183.679 30.32 184.223 29.752 184.623 29.016C185.023 28.264 185.223 27.392 185.223 26.4ZM190.305 26.4C190.305 25.04 190.577 23.856 191.121 22.848C191.665 21.824 192.417 21.032 193.377 20.472C194.353 19.912 195.465 19.632 196.713 19.632C198.329 19.632 199.657 20.024 200.697 20.808C201.753 21.592 202.449 22.68 202.785 24.072H200.433C200.209 23.272 199.769 22.64 199.113 22.176C198.473 21.712 197.673 21.48 196.713 21.48C195.465 21.48 194.457 21.912 193.689 22.776C192.921 23.624 192.537 24.832 192.537 26.4C192.537 27.984 192.921 29.208 193.689 30.072C194.457 30.936 195.465 31.368 196.713 31.368C197.673 31.368 198.473 31.144 199.113 30.696C199.753 30.248 200.193 29.608 200.433 28.776H202.785C202.433 30.12 201.729 31.2 200.673 32.016C199.617 32.816 198.297 33.216 196.713 33.216C195.465 33.216 194.353 32.936 193.377 32.376C192.417 31.816 191.665 31.024 191.121 30C190.577 28.976 190.305 27.776 190.305 26.4ZM217.7 25.92C217.7 26.336 217.676 26.776 217.628 27.24H207.116C207.196 28.536 207.636 29.552 208.436 30.288C209.252 31.008 210.236 31.368 211.388 31.368C212.332 31.368 213.116 31.152 213.74 30.72C214.38 30.272 214.828 29.68 215.084 28.944H217.436C217.084 30.208 216.38 31.24 215.324 32.04C214.268 32.824 212.956 33.216 211.388 33.216C210.14 33.216 209.02 32.936 208.028 32.376C207.052 31.816 206.284 31.024 205.724 30C205.164 28.96 204.884 27.76 204.884 26.4C204.884 25.04 205.156 23.848 205.7 22.824C206.244 21.8 207.004 21.016 207.98 20.472C208.972 19.912 210.108 19.632 211.388 19.632C212.636 19.632 213.74 19.904 214.7 20.448C215.66 20.992 216.396 21.744 216.908 22.704C217.436 23.648 217.7 24.72 217.7 25.92ZM215.444 25.464C215.444 24.632 215.26 23.92 214.892 23.328C214.524 22.72 214.02 22.264 213.38 21.96C212.756 21.64 212.06 21.48 211.292 21.48C210.188 21.48 209.244 21.832 208.46 22.536C207.692 23.24 207.252 24.216 207.14 25.464H215.444ZM221.278 33.144C220.862 33.144 220.51 33 220.222 32.712C219.934 32.424 219.79 32.072 219.79 31.656C219.79 31.24 219.934 30.888 220.222 30.6C220.51 30.312 220.862 30.168 221.278 30.168C221.678 30.168 222.014 30.312 222.286 30.6C222.574 30.888 222.718 31.24 222.718 31.656C222.718 32.072 222.574 32.424 222.286 32.712C222.014 33 221.678 33.144 221.278 33.144Z" fill="white"/>
<path d="M79.252 48.108C78.748 48.108 78.296 48.024 77.896 47.856C77.496 47.68 77.18 47.44 76.948 47.136C76.716 46.824 76.588 46.468 76.564 46.068H77.692C77.724 46.396 77.876 46.664 78.148 46.872C78.428 47.08 78.792 47.184 79.24 47.184C79.656 47.184 79.984 47.092 80.224 46.908C80.464 46.724 80.584 46.492 80.584 46.212C80.584 45.924 80.456 45.712 80.2 45.576C79.944 45.432 79.548 45.292 79.012 45.156C78.524 45.028 78.124 44.9 77.812 44.772C77.508 44.636 77.244 44.44 77.02 44.184C76.804 43.92 76.696 43.576 76.696 43.152C76.696 42.816 76.796 42.508 76.996 42.228C77.196 41.948 77.48 41.728 77.848 41.568C78.216 41.4 78.636 41.316 79.108 41.316C79.836 41.316 80.424 41.5 80.872 41.868C81.32 42.236 81.56 42.74 81.592 43.38H80.5C80.476 43.036 80.336 42.76 80.08 42.552C79.832 42.344 79.496 42.24 79.072 42.24C78.68 42.24 78.368 42.324 78.136 42.492C77.904 42.66 77.788 42.88 77.788 43.152C77.788 43.368 77.856 43.548 77.992 43.692C78.136 43.828 78.312 43.94 78.52 44.028C78.736 44.108 79.032 44.2 79.408 44.304C79.88 44.432 80.264 44.56 80.56 44.688C80.856 44.808 81.108 44.992 81.316 45.24C81.532 45.488 81.644 45.812 81.652 46.212C81.652 46.572 81.552 46.896 81.352 47.184C81.152 47.472 80.868 47.7 80.5 47.868C80.14 48.028 79.724 48.108 79.252 48.108ZM84.5255 42.324V46.2C84.5255 46.52 84.5935 46.748 84.7295 46.884C84.8655 47.012 85.1015 47.076 85.4375 47.076H86.2415V48H85.2575C84.6495 48 84.1935 47.86 83.8895 47.58C83.5855 47.3 83.4335 46.84 83.4335 46.2V42.324H82.5815V41.424H83.4335V39.768H84.5255V41.424H86.2415V42.324H84.5255ZM93.3966 41.424V48H92.3046V47.028C92.0966 47.364 91.8046 47.628 91.4286 47.82C91.0606 48.004 90.6526 48.096 90.2046 48.096C89.6926 48.096 89.2326 47.992 88.8246 47.784C88.4166 47.568 88.0926 47.248 87.8526 46.824C87.6206 46.4 87.5046 45.884 87.5046 45.276V41.424H88.5846V45.132C88.5846 45.78 88.7486 46.28 89.0766 46.632C89.4046 46.976 89.8526 47.148 90.4206 47.148C91.0046 47.148 91.4646 46.968 91.8006 46.608C92.1366 46.248 92.3046 45.724 92.3046 45.036V41.424H93.3966ZM97.9164 42.324H96.5364V48H95.4444V42.324H94.5924V41.424H95.4444V40.956C95.4444 40.22 95.6324 39.684 96.0084 39.348C96.3924 39.004 97.0044 38.832 97.8444 38.832V39.744C97.3644 39.744 97.0244 39.84 96.8244 40.032C96.6324 40.216 96.5364 40.524 96.5364 40.956V41.424H97.9164V42.324ZM101.866 42.324H100.486V48H99.3936V42.324H98.5416V41.424H99.3936V40.956C99.3936 40.22 99.5816 39.684 99.9576 39.348C100.342 39.004 100.954 38.832 101.794 38.832V39.744C101.314 39.744 100.974 39.84 100.774 40.032C100.582 40.216 100.486 40.524 100.486 40.956V41.424H101.866V42.324ZM105.467 48.108C104.963 48.108 104.511 48.024 104.111 47.856C103.711 47.68 103.395 47.44 103.163 47.136C102.931 46.824 102.803 46.468 102.779 46.068H103.907C103.939 46.396 104.091 46.664 104.363 46.872C104.643 47.08 105.007 47.184 105.455 47.184C105.871 47.184 106.199 47.092 106.439 46.908C106.679 46.724 106.799 46.492 106.799 46.212C106.799 45.924 106.671 45.712 106.415 45.576C106.159 45.432 105.763 45.292 105.227 45.156C104.739 45.028 104.339 44.9 104.027 44.772C103.723 44.636 103.459 44.44 103.235 44.184C103.019 43.92 102.911 43.576 102.911 43.152C102.911 42.816 103.011 42.508 103.211 42.228C103.411 41.948 103.695 41.728 104.063 41.568C104.431 41.4 104.851 41.316 105.323 41.316C106.051 41.316 106.639 41.5 107.087 41.868C107.535 42.236 107.775 42.74 107.807 43.38H106.715C106.691 43.036 106.551 42.76 106.295 42.552C106.047 42.344 105.711 42.24 105.287 42.24C104.895 42.24 104.583 42.324 104.351 42.492C104.119 42.66 104.003 42.88 104.003 43.152C104.003 43.368 104.071 43.548 104.207 43.692C104.351 43.828 104.527 43.94 104.735 44.028C104.951 44.108 105.247 44.2 105.623 44.304C106.095 44.432 106.479 44.56 106.775 44.688C107.071 44.808 107.323 44.992 107.531 45.24C107.747 45.488 107.859 45.812 107.867 46.212C107.867 46.572 107.767 46.896 107.567 47.184C107.367 47.472 107.083 47.7 106.715 47.868C106.355 48.028 105.939 48.108 105.467 48.108ZM110.5 42.648C110.724 42.256 111.052 41.936 111.484 41.688C111.916 41.44 112.408 41.316 112.96 41.316C113.552 41.316 114.084 41.456 114.556 41.736C115.028 42.016 115.4 42.412 115.672 42.924C115.944 43.428 116.08 44.016 116.08 44.688C116.08 45.352 115.944 45.944 115.672 46.464C115.4 46.984 115.024 47.388 114.544 47.676C114.072 47.964 113.544 48.108 112.96 48.108C112.392 48.108 111.892 47.984 111.46 47.736C111.036 47.488 110.716 47.172 110.5 46.788V48H109.408V39.12H110.5V42.648ZM114.964 44.688C114.964 44.192 114.864 43.76 114.664 43.392C114.464 43.024 114.192 42.744 113.848 42.552C113.512 42.36 113.14 42.264 112.732 42.264C112.332 42.264 111.96 42.364 111.616 42.564C111.28 42.756 111.008 43.04 110.8 43.416C110.6 43.784 110.5 44.212 110.5 44.7C110.5 45.196 110.6 45.632 110.8 46.008C111.008 46.376 111.28 46.66 111.616 46.86C111.96 47.052 112.332 47.148 112.732 47.148C113.14 47.148 113.512 47.052 113.848 46.86C114.192 46.66 114.464 46.376 114.664 46.008C114.864 45.632 114.964 45.192 114.964 44.688ZM123.182 41.424L119.222 51.096H118.094L119.39 47.928L116.738 41.424H117.95L120.014 46.752L122.054 41.424H123.182ZM125.371 42.492C125.563 42.116 125.835 41.824 126.187 41.616C126.547 41.408 126.983 41.304 127.495 41.304V42.432H127.207C125.983 42.432 125.371 43.096 125.371 44.424V48H124.279V41.424H125.371V42.492ZM134.588 41.424V48H133.496V47.028C133.288 47.364 132.996 47.628 132.62 47.82C132.252 48.004 131.844 48.096 131.396 48.096C130.884 48.096 130.424 47.992 130.016 47.784C129.608 47.568 129.284 47.248 129.044 46.824C128.812 46.4 128.696 45.884 128.696 45.276V41.424H129.776V45.132C129.776 45.78 129.94 46.28 130.268 46.632C130.596 46.976 131.044 47.148 131.612 47.148C132.196 47.148 132.656 46.968 132.992 46.608C133.328 46.248 133.496 45.724 133.496 45.036V41.424H134.588ZM137.524 42.648C137.748 42.256 138.076 41.936 138.508 41.688C138.94 41.44 139.432 41.316 139.984 41.316C140.576 41.316 141.108 41.456 141.58 41.736C142.052 42.016 142.424 42.412 142.696 42.924C142.968 43.428 143.104 44.016 143.104 44.688C143.104 45.352 142.968 45.944 142.696 46.464C142.424 46.984 142.048 47.388 141.568 47.676C141.096 47.964 140.568 48.108 139.984 48.108C139.416 48.108 138.916 47.984 138.484 47.736C138.06 47.488 137.74 47.172 137.524 46.788V48H136.432V39.12H137.524V42.648ZM141.988 44.688C141.988 44.192 141.888 43.76 141.688 43.392C141.488 43.024 141.216 42.744 140.872 42.552C140.536 42.36 140.164 42.264 139.756 42.264C139.356 42.264 138.984 42.364 138.64 42.564C138.304 42.756 138.032 43.04 137.824 43.416C137.624 43.784 137.524 44.212 137.524 44.7C137.524 45.196 137.624 45.632 137.824 46.008C138.032 46.376 138.304 46.66 138.64 46.86C138.984 47.052 139.356 47.148 139.756 47.148C140.164 47.148 140.536 47.052 140.872 46.86C141.216 46.66 141.488 46.376 141.688 46.008C141.888 45.632 141.988 45.192 141.988 44.688ZM145.633 42.648C145.857 42.256 146.185 41.936 146.617 41.688C147.049 41.44 147.541 41.316 148.093 41.316C148.685 41.316 149.217 41.456 149.689 41.736C150.161 42.016 150.533 42.412 150.805 42.924C151.077 43.428 151.213 44.016 151.213 44.688C151.213 45.352 151.077 45.944 150.805 46.464C150.533 46.984 150.157 47.388 149.677 47.676C149.205 47.964 148.677 48.108 148.093 48.108C147.525 48.108 147.025 47.984 146.593 47.736C146.169 47.488 145.849 47.172 145.633 46.788V48H144.541V39.12H145.633V42.648ZM150.097 44.688C150.097 44.192 149.997 43.76 149.797 43.392C149.597 43.024 149.325 42.744 148.981 42.552C148.645 42.36 148.273 42.264 147.865 42.264C147.465 42.264 147.093 42.364 146.749 42.564C146.413 42.756 146.141 43.04 145.933 43.416C145.733 43.784 145.633 44.212 145.633 44.7C145.633 45.196 145.733 45.632 145.933 46.008C146.141 46.376 146.413 46.66 146.749 46.86C147.093 47.052 147.465 47.148 147.865 47.148C148.273 47.148 148.645 47.052 148.981 46.86C149.325 46.66 149.597 46.376 149.797 46.008C149.997 45.632 150.097 45.192 150.097 44.688ZM153.215 40.356C153.007 40.356 152.831 40.284 152.687 40.14C152.543 39.996 152.471 39.82 152.471 39.612C152.471 39.404 152.543 39.228 152.687 39.084C152.831 38.94 153.007 38.868 153.215 38.868C153.415 38.868 153.583 38.94 153.719 39.084C153.863 39.228 153.935 39.404 153.935 39.612C153.935 39.82 153.863 39.996 153.719 40.14C153.583 40.284 153.415 40.356 153.215 40.356ZM153.743 41.424V48H152.651V41.424H153.743ZM161.604 44.46C161.604 44.668 161.592 44.888 161.568 45.12H156.312C156.352 45.768 156.572 46.276 156.972 46.644C157.38 47.004 157.872 47.184 158.448 47.184C158.92 47.184 159.312 47.076 159.624 46.86C159.944 46.636 160.168 46.34 160.296 45.972H161.472C161.296 46.604 160.944 47.12 160.416 47.52C159.888 47.912 159.232 48.108 158.448 48.108C157.824 48.108 157.264 47.968 156.768 47.688C156.28 47.408 155.896 47.012 155.616 46.5C155.336 45.98 155.196 45.38 155.196 44.7C155.196 44.02 155.332 43.424 155.604 42.912C155.876 42.4 156.256 42.008 156.744 41.736C157.24 41.456 157.808 41.316 158.448 41.316C159.072 41.316 159.624 41.452 160.104 41.724C160.584 41.996 160.952 42.372 161.208 42.852C161.472 43.324 161.604 43.86 161.604 44.46ZM160.476 44.232C160.476 43.816 160.384 43.46 160.2 43.164C160.016 42.86 159.764 42.632 159.444 42.48C159.132 42.32 158.784 42.24 158.4 42.24C157.848 42.24 157.376 42.416 156.984 42.768C156.6 43.12 156.38 43.608 156.324 44.232H160.476Z" fill="white"/>
<defs>
<clipPath id="clip0">
<path d="M0 2C0 0.89543 0.895431 0 2 0H57C58.1046 0 59 0.895431 59 2V57C59 58.1046 58.1046 59 57 59H2C0.89543 59 0 58.1046 0 57V2Z" fill="white"/>
</clipPath>
</defs>
</svg>
